<svg width="30" height="31" viewBox="0 0 30 31" fill="none" xmlns="http://www.w3.org/2000/svg">
<g clip-path="url(#clip0_304_52)">
<path d="M30 6.35245V23.9612C30 25.5851 28.6891 26.8959 27.0652 26.8959H2.93479C1.31086 26.8959 0 25.5851 0 23.9612V6.35245C0 6.3003 0 6.2481 0.00650391 6.19595C0.0847852 4.69595 1.27822 3.50245 2.77822 3.42423C2.83037 3.41772 2.88258 3.41772 2.93473 3.41772H27.0652C27.1173 3.41772 27.176 3.41772 27.2282 3.42423C28.7217 3.50251 29.9152 4.69595 29.9934 6.18944C30 6.24159 30 6.3003 30 6.35245Z" fill="white"/>
<path d="M27.2283 3.42398C27.176 3.41748 27.1175 3.41748 27.0652 3.41748H15V26.8958H27.0652C28.6891 26.8958 30 25.5849 30 23.961V6.35227C30 6.30012 30 6.24141 29.9935 6.1892C29.9152 4.69576 28.7217 3.50227 27.2283 3.42398Z" fill="white"/>
<path d="M29.9935 6.18935C29.9152 4.69585 28.7218 3.50241 27.2283 3.42413C22.435 8.21739 19.7432 10.9092 15 15.6524C13.2006 13.8519 4.54746 5.19331 2.77828 3.42407C1.27828 3.50235 0.0847852 4.69579 0.0065625 6.19579C0 6.248 0 6.3002 0 6.35235V23.9611C0 25.585 1.31086 26.8958 2.93479 26.8958H3.91307V10.1024L13.6174 19.8002C13.9957 20.185 14.4979 20.3741 15.0001 20.3741C15.5022 20.3741 16.0044 20.185 16.3827 19.8002L26.0871 10.0958V26.8958H27.0653C28.6893 26.8958 30.0001 25.585 30.0001 23.9611V6.35235C30 6.3002 30 6.24149 29.9935 6.18935Z" fill="#303030" fill-opacity="0.57"/>
<path d="M16.3826 19.8002L26.0869 10.0958V26.8958H27.0652C28.6891 26.8958 30 25.585 30 23.9611V6.35235C30 6.3002 30 6.24149 29.9935 6.18929C29.9152 4.69579 28.7218 3.50235 27.2283 3.42407C22.435 8.21739 19.7432 10.9092 15 15.6524V20.3741C15.5021 20.3741 16.0044 20.185 16.3826 19.8002Z" fill="#303030" fill-opacity="0.57"/>
</g>
<defs>
<clipPath id="clip0_304_52">
<rect width="30" height="30" fill="white" transform="translate(0 0.156738)"/>
</clipPath>
</defs>
</svg>
