<svg width="30" height="31" viewBox="0 0 30 31" fill="none" xmlns="http://www.w3.org/2000/svg">
<g clip-path="url(#clip0_304_41)">
<path d="M27.2863 0.156738H2.71374C1.215 0.156738 0 1.37174 0 2.87048V27.4429C0 28.9417 1.215 30.1567 2.71374 30.1567H27.2862C28.785 30.1567 30 28.9417 30 27.4429V2.87048C30 1.37174 28.785 0.156738 27.2863 0.156738ZM9.28327 26.0607C9.28327 26.4969 8.92971 26.8505 8.49353 26.8505H5.13181C4.69563 26.8505 4.34207 26.4969 4.34207 26.0607V11.9685C4.34207 11.5323 4.69563 11.1788 5.13181 11.1788H8.49353C8.92971 11.1788 9.28327 11.5323 9.28327 11.9685V26.0607ZM6.81267 9.85035C5.04887 9.85035 3.61901 8.42048 3.61901 6.65669C3.61901 4.89289 5.04887 3.46302 6.81267 3.46302C8.57647 3.46302 10.0063 4.89289 10.0063 6.65669C10.0063 8.42048 8.57654 9.85035 6.81267 9.85035ZM26.8516 26.1243C26.8516 26.5253 26.5264 26.8505 26.1254 26.8505H22.5181C22.1171 26.8505 21.7919 26.5253 21.7919 26.1243V19.5143C21.7919 18.5282 22.0812 15.1933 19.215 15.1933C16.9918 15.1933 16.5408 17.4759 16.4503 18.5003V26.1243C16.4503 26.5253 16.1252 26.8505 15.7242 26.8505H12.2352C11.8342 26.8505 11.5091 26.5253 11.5091 26.1243V11.9049C11.5091 11.5039 11.8342 11.1788 12.2352 11.1788H15.7242C16.1252 11.1788 16.4503 11.5039 16.4503 11.9049V13.1343C17.2747 11.8972 18.4998 10.9423 21.1083 10.9423C26.8846 10.9423 26.8516 16.3388 26.8516 19.304V26.1243Z" fill="white"/>
</g>
<defs>
<clipPath id="clip0_304_41">
<rect width="30" height="30" fill="white" transform="translate(0 0.156738)"/>
</clipPath>
</defs>
</svg>
