<svg width="1440" height="444" viewBox="0 0 1440 444" fill="none" xmlns="http://www.w3.org/2000/svg">
<mask id="mask0_13_7" style="mask-type:alpha" maskUnits="userSpaceOnUse" x="0" y="0" width="1440" height="444">
<rect width="1440" height="444" fill="#D9D9D9"/>
</mask>
<g mask="url(#mask0_13_7)">
<path fill-rule="evenodd" clip-rule="evenodd" d="M0 78.5664L60 65.0944C120 51.6224 240 25.2908 360 16.7177C480 7.53225 600 16.7177 720 29.5773C840 43.0493 960 60.8078 1080 65.0944C1200 69.3809 1320 60.8078 1380 56.5213L1440 51.6224V263.5H1380C1320 263.5 1200 263.5 1080 263.5C960 263.5 840 263.5 720 263.5C600 263.5 480 263.5 360 263.5C240 263.5 120 263.5 60 263.5H0V78.5664Z" fill="#4F47C8"/>
<path fill-rule="evenodd" clip-rule="evenodd" d="M1440 443.434L1380 456.906C1320 470.378 1200 496.709 1080 505.282C960 514.468 840 505.282 720 492.423C600 478.951 480 461.192 360 456.906C240 452.619 120 461.192 60 465.479L0 470.378V258.5H60C120 258.5 240 258.5 360 258.5C480 258.5 600 258.5 720 258.5C840 258.5 960 258.5 1080 258.5C1200 258.5 1320 258.5 1380 258.5H1440V443.434Z" fill="#4F47C8"/>
</g>
</svg>
