<svg width="30" height="31" viewBox="0 0 30 31" fill="none" xmlns="http://www.w3.org/2000/svg">
<g clip-path="url(#clip0_304_43)">
<path d="M4.40904 24.3434L4.83954 23.3388L4.22665 22.434C2.76895 20.2818 2 17.7752 2 15.1567C2 11.6805 3.34949 8.42235 5.80756 5.96433C8.26567 3.50626 11.5238 2.15674 15 2.15674C18.4762 2.15674 21.7344 3.50627 24.1924 5.9643C26.6504 8.42242 28 11.6805 28 15.1567C28 18.6329 26.6504 21.8911 24.1924 24.3492C21.7344 26.8072 18.4762 28.1567 15 28.1567C12.2899 28.1567 9.71296 27.3385 7.51472 25.786L6.55827 25.1104L5.50107 25.6139L3.44496 26.593L4.40904 24.3434ZM0.500026 29.6568L0.500008 29.6568L0.499976 29.6568L0.500026 29.6568Z" stroke="white" stroke-width="4"/>
<path d="M22.9916 20.2333L22.542 17.7981C22.5048 17.597 22.349 17.4388 22.1484 17.3986L18.6129 16.6916C18.4487 16.6588 18.2795 16.7102 18.1612 16.8283L16.7249 18.2647C14.3048 17.1803 12.9616 15.8344 11.7798 13.3103L13.2115 11.8785C13.3298 11.7603 13.381 11.5908 13.3483 11.4269L12.6412 7.89133C12.601 7.69076 12.4428 7.53485 12.2416 7.4977L9.8064 7.04811C9.73972 7.0358 9.67104 7.03715 9.60483 7.05221C8.96182 7.19834 8.37512 7.52231 7.90819 7.98936C7.09954 8.79801 6.79052 9.97791 7.01452 11.4017C7.39057 13.7924 8.56192 17.1194 10.7229 19.289L10.7523 19.3183C12.9203 21.4778 16.2473 22.6491 18.638 23.0252C18.9392 23.0726 19.2293 23.0961 19.5074 23.0961C20.5442 23.0961 21.4127 22.7691 22.0504 22.1315C22.5174 21.6645 22.8414 21.0778 22.9875 20.4348C23.0026 20.3687 23.004 20.3001 22.9916 20.2333Z" fill="white"/>
</g>
<defs>
<clipPath id="clip0_304_43">
<rect width="30" height="30" fill="white" transform="translate(0 0.156738)"/>
</clipPath>
</defs>
</svg>
